<?xml version="1.0" encoding="utf-8"?>
<!-- Generator: Adobe Illustrator 16.0.0, SVG Export Plug-In . SVG Version: 6.00 Build 0)  -->
<!DOCTYPE svg PUBLIC "-//W3C//DTD SVG 1.1//EN" "http://www.w3.org/Graphics/SVG/1.1/DTD/svg11.dtd">
<svg version="1.1" id="Layer_1" xmlns="http://www.w3.org/2000/svg" xmlns:xlink="http://www.w3.org/1999/xlink" x="0px" y="0px"
	 width="566.929px" height="388.347px" viewBox="0 0 566.929 388.347" enable-background="new 0 0 566.929 388.347"
	 xml:space="preserve">
<g>
	<path fill-rule="evenodd" clip-rule="evenodd" d="M566.832,388.347c-6.461,0-12.301,0-18.832,0c0-11.763,0-23.374,0-35.235
		c-112.434,0-224.18,0-336.524,0c0,11.523,0,23.136,0,35.137c-6.559,0-12.534,0-19.129,0c0-1.939,0-3.807,0-5.673
		c0-25.889-0.139-51.78,0.123-77.667c0.05-4.935,0.998-10.102,2.692-14.735c13.182-36.05,26.723-71.966,39.921-108.008
		c1.515-4.136,2.229-8.793,2.248-13.214c0.053-12.974,0.221-25.851,4.672-38.285c11.28-31.507,39.888-52.229,74.077-52.531
		c42.205-0.373,84.424-0.516,126.627,0.034c44.363,0.579,78.262,35.211,78.094,79.604c-0.049,12.661,2.033,24.386,6.549,36.143
		c12.133,31.59,23.902,63.324,35.309,95.184c2.479,6.926,3.84,14.596,3.992,21.958c0.494,23.78,0.184,47.578,0.184,71.368
		C566.832,384.303,566.832,386.18,566.832,388.347z M211.292,332.748c112.47,0,224.306,0,336.376,0
		c0-9.646,1.154-19.055-0.246-28.063c-2.764-17.784-11.617-27.585-31.758-27.537c-90.674,0.219-181.348,0.095-272.021,0.096
		c-1.918,0-3.84-0.051-5.754,0.04c-13.344,0.643-25.621,11.942-26.473,25.285C210.783,312.466,211.292,322.438,211.292,332.748z
		 M288.959,192.195c-11.676,0-22.477,0.143-33.268-0.084c-3.378-0.071-4.765,1.09-5.896,4.227
		c-7.045,19.535-14.344,38.979-21.534,58.463c-0.509,1.381-0.817,2.837-1.169,4.085c101.608,0,202.862,0,304.188,0
		c-0.031-0.376,0.035-0.918-0.129-1.376c-7.449-20.689-14.85-41.397-22.523-62.002c-0.557-1.492-3.09-3.069-4.781-3.163
		c-6.609-0.366-13.252-0.15-19.883-0.15c-4.619,0-9.238,0-14.072,0c0,5.463,0.057,10.004-0.014,14.543
		c-0.105,7.04-3.637,10.63-10.705,10.635c-53.041,0.035-106.084,0.033-159.125,0.005c-7.18-0.004-10.863-3.691-11.065-10.982
		C288.857,201.882,288.959,197.362,288.959,192.195z M288.953,173.016c0-11.744-0.021-23.231,0.006-34.719
		c0.022-9.713,3.254-13.007,12.85-13.011c51.793-0.017,103.586-0.017,155.379,0c9.729,0.003,12.695,3.07,12.703,12.949
		c0.012,11.494,0.004,22.988,0.004,34.726c11.096,0,21.617,0,32.621,0c0-5.353,0.053-10.389-0.008-15.424
		c-0.414-33.87-25.658-60.053-59.393-60.432c-42.371-0.476-84.754-0.437-127.125-0.014c-36.816,0.367-66.038,32.159-58.849,75.925
		C267.534,173.016,277.934,173.016,288.953,173.016z M369.922,198.192c0-18.056,0-35.645,0-53.016
		c-0.416-0.324-0.555-0.523-0.693-0.524c-19.512-0.145-39.025-0.331-58.539-0.237c-0.953,0.005-2.674,2.433-2.715,3.774
		c-0.254,8.389-0.133,16.79-0.135,25.187c0,8.179,0,16.359,0,24.817C328.773,198.192,349.104,198.192,369.922,198.192z
		 M389.367,144.501c0,18.248,0,35.848,0,53.67c20.584,0,40.881,0,61.262,0c0-18.035,0-35.753,0-53.67
		C430.078,144.501,409.92,144.501,389.367,144.501z"/>
	<path fill-rule="evenodd" clip-rule="evenodd" d="M129.483,388.191c0-5.47,0-10.66,0-16.143c-33.119,0-65.83,0-99.173,0
		c0,5.368,0,10.683,0,16.289c-6.48,0-12.335,0-18.781,0c0-5.352,0-10.682,0-15.866c-9.606-2.292-11.518-4.739-11.519-14.293
		c-0.007-60.366-0.022-120.734,0.007-181.101c0.01-18.819,9.872-32.531,26.606-36.676c3.829-0.948,7.938-0.973,11.924-1.021
		c10.602-0.132,21.207-0.045,32.12-0.045c0-17.487,0-34.393,0-51.996c-1.68-0.074-3.507-0.22-5.334-0.224
		c-12.038-0.021-24.076,0.035-36.114-0.028c-9.424-0.048-12.789-4.341-10.861-13.659c3.183-15.384,6.219-30.801,9.6-46.141
		C31.517,11.143,45.372,0.152,61.923,0.054C73.961-0.017,86-0.02,98.037,0.055c16.558,0.104,30.035,10.664,33.669,26.757
		c3.614,16.003,6.893,32.083,10.176,48.158c1.53,7.488-2.313,12.003-10.312,12.095c-11.863,0.138-23.727,0.039-35.591,0.04
		c-1.86,0.001-3.72,0-5.842,0c0,17.55,0,34.457,0,51.921c1.93,0.105,3.789,0.288,5.647,0.294c8.898,0.032,17.796-0.046,26.694,0.029
		c22.436,0.188,37.299,15.136,37.319,37.623c0.041,47.069,0.013,94.138,0.013,141.207c0,13.647,0.014,27.295-0.005,40.944
		c-0.012,8.568-2.535,11.526-11.417,13.053c0,2.514,0,5.111,0,7.709c0,2.617,0,5.233,0,8.306
		C142.221,388.191,136.241,388.191,129.483,388.191z M139.899,278.811c-40.494,0-80.487,0-120.637,0c0,24.815,0,49.217,0,73.657
		c40.398,0,80.426,0,120.637,0C139.899,327.821,139.899,303.536,139.899,278.811z M139.802,218.965c-40.477,0-80.431,0-120.572,0
		c0,13.608,0,26.8,0,40.217c40.323,0,80.308,0,120.572,0C139.802,245.699,139.802,232.499,139.802,218.965z M19.128,199.219
		c40.566,0,80.596,0,120.941,0c0-8.775,0.108-17.156-0.03-25.534c-0.146-8.886-6.212-15.255-15.201-15.306
		c-30.185-0.168-60.371-0.157-90.555-0.005c-8.39,0.042-14.426,5.387-15.016,13.778C18.646,180.999,19.128,189.922,19.128,199.219z
		 M38.614,66.961c27.727,0,54.999,0,82.623,0c-2.582-12.713-4.877-25.058-7.657-37.292c-1.61-7.09-7.68-11.718-14.841-11.798
		c-12.556-0.141-25.115-0.145-37.671-0.002c-7.6,0.087-13.471,4.822-15.028,12.144C43.465,42.122,41.148,54.286,38.614,66.961z"/>
	<path fill-rule="evenodd" clip-rule="evenodd" d="M63.147,310.358c0-6.285,0-12.137,0-18.265c11.029,0,21.731,0,32.718,0
		c0,6.142,0,12.006,0,18.265C85.076,310.358,74.375,310.358,63.147,310.358z"/>
	<path fill-rule="evenodd" clip-rule="evenodd" d="M95.999,229.14c0,6.268,0,12.008,0,18.18c-10.837,0-21.538,0-32.711,0
		c0-5.876,0-11.858,0-18.18C74.101,229.14,84.799,229.14,95.999,229.14z"/>
	<path fill-rule="evenodd" clip-rule="evenodd" d="M95.848,169.375c0,6.459,0,12.3,0,18.888c-10.275,0-20.45,0.049-30.621-0.095
		c-0.794-0.011-1.65-1.299-2.313-2.126c-0.261-0.325-0.059-1.013-0.088-1.535c-0.855-15.131-0.856-15.131,14.104-15.131
		C83.141,169.375,89.352,169.375,95.848,169.375z"/>
</g>
</svg>
