<?xml version="1.0" encoding="utf-8"?>
<!-- Generator: Adobe Illustrator 16.0.0, SVG Export Plug-In . SVG Version: 6.00 Build 0)  -->
<!DOCTYPE svg PUBLIC "-//W3C//DTD SVG 1.1//EN" "http://www.w3.org/Graphics/SVG/1.1/DTD/svg11.dtd">
<svg version="1.1" id="Layer_1" xmlns="http://www.w3.org/2000/svg" xmlns:xlink="http://www.w3.org/1999/xlink" x="0px" y="0px"
	 width="481px" height="531px" viewBox="0 0 481 531" enable-background="new 0 0 481 531" xml:space="preserve">
<g>
	<path fill-rule="evenodd" clip-rule="evenodd" d="M482.176,56.648c0,29.396,0.752,58.229-0.182,87.007
		c-1.275,39.316-5.441,78.412-12.564,117.152c-8.904,48.428-23.912,94.467-51.701,135.738
		c-32.877,48.824-76.189,85.639-128.504,111.998c-14.387,7.25-29.477,13.119-44.34,19.393c-1.914,0.809-4.662,0.938-6.595,0.221
		c-59.952-22.25-112.327-55.633-153.565-105.205c-33.577-40.361-54.836-86.643-66.316-137.699
		C6.998,234.511,1.713,183.054,0.325,131.178c-0.659-24.627-0.113-49.285-0.113-74.416c9.273-0.343,18.357-0.6,27.434-1.028
		c59.708-2.824,117.58-14.369,172.952-37.195c12.898-5.317,25.198-12.078,37.879-17.947c1.613-0.746,4.26-0.826,5.768-0.004
		c49.021,26.717,101.684,42.292,156.688,49.723c25.852,3.493,52.082,4.188,78.141,6.147
		C480.039,56.53,481.008,56.577,482.176,56.648z M35.039,90.811c0,6.691-0.083,12.983,0.013,19.273
		c0.803,52.562,4.793,104.81,15.33,156.423c8.449,41.387,22.81,80.291,47.269,115.127c35.683,50.824,83.838,85.422,140.768,108.641
		c1.858,0.758,4.637,0.586,6.508-0.238c10.654-4.691,21.369-9.318,31.688-14.693c52.246-27.215,94.012-65.518,123.125-117.117
		c20.961-37.152,30.998-77.739,37.641-119.377c7.311-45.84,10.107-92.034,10.412-138.409c0.02-3.113,0.002-6.228,0.002-9.445
		c-8.932-0.792-17.369-1.448-25.789-2.301c-61.625-6.243-120.898-21.168-177.027-47.822c-2.01-0.954-5.28-0.908-7.303,0.057
		c-34.425,16.426-70.398,28.239-107.545,36.637C99.039,84.593,67.558,88.861,35.039,90.811z"/>
	<path fill-rule="evenodd" clip-rule="evenodd" d="M410.844,144.676c-66.828,83.93-133.404,167.54-200.486,251.79
		c-32.802-33.416-65.392-66.616-97.674-99.504c12.214-12.709,24.26-25.244,35.782-37.234c19.736,18.787,38.999,37.123,58.609,55.789
		c53.497-67.177,107.716-135.258,162.327-203.834C383.289,122.737,396.902,133.576,410.844,144.676z"/>
</g>
</svg>
