<?xml version="1.0" encoding="utf-8"?>
<!-- Generator: Adobe Illustrator 16.0.0, SVG Export Plug-In . SVG Version: 6.00 Build 0)  -->
<!DOCTYPE svg PUBLIC "-//W3C//DTD SVG 1.1//EN" "http://www.w3.org/Graphics/SVG/1.1/DTD/svg11.dtd">
<svg version="1.1" id="Layer_1" xmlns="http://www.w3.org/2000/svg" xmlns:xlink="http://www.w3.org/1999/xlink" x="0px" y="0px"
	 width="566.929px" height="178.583px" viewBox="0 0 566.929 178.583" enable-background="new 0 0 566.929 178.583"
	 xml:space="preserve">
<path id="logo_1_" d="M298.765,45.225c0,6.368-5.211,11.578-11.578,11.578s-11.577-5.21-11.577-11.578s4.92-11.577,11.577-11.577
	C293.844,33.792,298.765,39.002,298.765,45.225z M251.296,68.379c0,1.013,0,2.895,0,2.895s-5.5-7.091-17.221-7.091
	c-19.248,0-34.444,14.762-34.444,35.022s14.906,35.022,34.444,35.022c11.867,0,17.221-7.236,17.221-7.236v3.039
	c0,1.447,1.013,2.46,2.46,2.46h14.328V65.92c0,0-13.17,0-14.328,0C252.31,65.92,251.296,67.222,251.296,68.379z M251.296,111.071
	c-2.605,3.908-7.959,7.236-14.326,7.236c-11.289,0-19.972-7.092-19.972-19.103c0-12.012,8.684-19.104,19.972-19.104
	c6.222,0,11.867,3.473,14.326,7.236V111.071z M278.793,65.92h17.077v66.57h-17.077V65.92z M532.774,64.183
	c-11.723,0-17.222,7.091-17.222,7.091V33.937h-17.077v98.697c0,0,13.17,0,14.328,0c1.447,0,2.46-1.301,2.46-2.459v-3.039l0,0
	c0,0,5.499,7.236,17.221,7.236c19.248,0,34.443-14.906,34.443-35.023C567.073,79.088,551.878,64.183,532.774,64.183z
	 M530.024,118.163c-6.512,0-11.722-3.329-14.326-7.236V87.193c2.604-3.473,8.393-7.235,14.326-7.235
	c11.288,0,19.972,7.091,19.972,19.102C549.996,111.071,541.313,118.163,530.024,118.163z M489.793,92.981v39.652h-17.077V95.007
	c0-10.997-3.473-15.483-13.169-15.483c-5.21,0-10.42,2.605-13.748,6.512v46.455h-17.077V65.92h13.459c1.447,0,2.46,1.302,2.46,2.459
	v2.895c4.921-5.21,11.578-7.091,18.09-7.091c7.38,0,13.604,2.171,18.669,6.368C487.477,75.471,489.793,81.839,489.793,92.981z
	 M387.478,64.183c-11.723,0-17.223,7.091-17.223,7.091V33.937h-17.076v98.697c0,0,13.169,0,14.327,0c1.447,0,2.46-1.301,2.46-2.459
	v-3.039l0,0c0,0,5.499,7.236,17.222,7.236c19.247,0,34.442-14.906,34.442-35.023C421.92,79.088,406.869,64.183,387.478,64.183z
	 M384.727,118.163c-6.512,0-11.722-3.329-14.327-7.236V87.193c2.605-3.473,8.395-7.235,14.327-7.235
	c11.289,0,19.972,7.091,19.972,19.102C404.698,111.071,396.016,118.163,384.727,118.163z M338.562,64.183
	c5.21,0,7.814,0.869,7.814,0.869v15.774c0,0-14.182-4.775-23.01,5.355v46.6H306.29V65.92c0,0,13.169,0,14.327,0
	c1.447,0,2.459,1.302,2.459,2.459v2.895C326.405,67.511,333.352,64.183,338.562,64.183z M162.006,126.557
	c-0.869-2.171-1.737-4.486-2.605-6.367c-1.447-3.185-2.895-6.224-4.052-8.974l-0.146-0.145
	c-12.156-26.628-25.325-53.545-39.218-80.029l-0.58-1.013c-1.447-2.605-2.894-5.5-4.196-8.394c-1.737-3.184-3.473-6.513-6.368-9.696
	C99.198,4.848,91.093,0.941,82.41,0.941c-8.828,0-16.787,3.907-22.72,10.564c-2.605,3.184-4.631,6.512-6.368,9.696
	c-1.447,2.895-2.894,5.644-4.197,8.394l-0.579,1.013c-13.603,26.628-26.917,53.546-39.219,80.03l-0.144,0.289
	c-1.303,2.895-2.605,5.789-4.052,8.973c-0.868,1.881-1.737,4.053-2.605,6.367c-2.315,6.514-3.039,12.735-2.171,19.104
	c1.881,13.314,10.854,24.457,23.01,29.377c4.632,1.882,9.407,2.895,14.328,2.895c1.447,0,3.184-0.145,4.631-0.289
	c5.788-0.724,11.867-2.605,17.655-6.078c7.236-4.052,14.183-9.985,21.998-18.379c7.814,8.538,14.905,14.327,21.997,18.379
	c5.789,3.328,11.868,5.354,17.656,6.078c1.447,0.145,3.184,0.289,4.631,0.289c4.92,0,9.986-0.867,14.328-2.895
	c12.445-4.92,21.128-16.353,23.01-29.377C165.044,139.292,164.321,133.068,162.006,126.557z M82.12,135.675
	c-9.551-12.013-15.773-23.445-17.944-32.997c-0.869-4.052-1.014-7.671-0.58-10.854c0.29-2.895,1.447-5.355,2.895-7.381
	c3.329-4.775,8.973-7.814,15.629-7.814c6.657,0,12.446,2.895,15.63,7.814c1.447,2.171,2.459,4.631,2.894,7.381
	c0.579,3.183,0.29,6.946-0.578,10.854C97.895,112.229,91.672,123.518,82.12,135.675z M152.743,144.067
	c-1.302,9.262-7.38,17.222-16.063,20.695c-4.197,1.736-8.828,2.314-13.458,1.736c-4.487-0.58-8.828-1.881-13.459-4.631
	c-6.368-3.474-12.735-8.973-20.261-17.222c11.722-14.327,18.813-27.497,21.418-39.219c1.303-5.499,1.447-10.421,0.869-15.051
	c-0.724-4.486-2.316-8.538-4.776-12.012c-5.499-7.959-14.761-12.59-25.036-12.59c-10.275,0-19.538,4.775-25.037,12.59
	c-2.461,3.474-4.052,7.67-4.776,12.012c-0.724,4.63-0.579,9.696,0.869,15.051c2.605,11.722,9.986,25.036,21.418,39.363
	c-7.236,8.104-13.749,13.604-20.261,17.222c-4.631,2.605-8.973,4.053-13.459,4.631c-4.775,0.579-9.406-0.145-13.458-1.736
	c-8.684-3.474-14.907-11.578-16.064-20.695c-0.578-4.486-0.145-8.827,1.593-13.748c0.578-1.736,1.447-3.473,2.315-5.645
	c1.302-2.895,2.605-5.789,4.052-8.828l0.145-0.289c12.156-26.338,25.326-53.4,38.93-79.595l0.578-1.013
	c1.447-2.605,2.895-5.499,4.198-8.104c1.447-2.895,3.039-5.5,4.92-7.815c3.763-4.197,8.683-6.512,14.182-6.512
	s10.42,2.315,14.183,6.512c1.881,2.315,3.473,4.92,4.92,7.815c1.447,2.605,2.895,5.499,4.197,8.104l0.579,1.013
	c13.458,26.338,26.628,53.4,38.785,79.74v0.144c1.447,2.895,2.605,6.079,4.052,8.828c0.868,2.172,1.737,3.908,2.315,5.645
	C152.888,134.95,153.466,139.437,152.743,144.067z"/>
</svg>
